<svg xmlns="http://www.w3.org/2000/svg" viewBox="0 0 100 100" width="100" height="100">
  <!-- Background -->
  <rect x="0" y="0" width="100" height="100" rx="12" fill="#2a2a2a" />
  
  <!-- Board outline -->
  <rect x="10" y="10" width="80" height="80" rx="4" fill="#2a5a8a" />
  
  <!-- Grid circles -->
  <!-- Row 1 -->
  <circle cx="20" cy="20" r="7" fill="#333" />
  <circle cx="35" cy="20" r="7" fill="#333" />
  <circle cx="50" cy="20" r="7" fill="#333" />
  <circle cx="65" cy="20" r="7" fill="#333" />
  <circle cx="80" cy="20" r="7" fill="#333" />
  
  <!-- Row 2 -->
  <circle cx="20" cy="35" r="7" fill="#333" />
  <circle cx="35" cy="35" r="7" fill="#333" />
  <circle cx="50" cy="35" r="7" fill="#333" />
  <circle cx="65" cy="35" r="7" fill="#333" />
  <circle cx="80" cy="35" r="7" fill="#333" />
  
  <!-- Row 3 -->
  <circle cx="20" cy="50" r="7" fill="#333" />
  <circle cx="35" cy="50" r="7" fill="#333" />
  <circle cx="50" cy="50" r="7" fill="#333" />
  <circle cx="65" cy="50" r="7" fill="#ff6bcb" />
  <circle cx="80" cy="50" r="7" fill="#333" />
  
  <!-- Row 4 -->
  <circle cx="20" cy="65" r="7" fill="#333" />
  <circle cx="35" cy="65" r="7" fill="#42e8e0" />
  <circle cx="50" cy="65" r="7" fill="#ff6bcb" />
  <circle cx="65" cy="65" r="7" fill="#42e8e0" />
  <circle cx="80" cy="65" r="7" fill="#333" />
  
  <!-- Row 5 -->
  <circle cx="20" cy="80" r="7" fill="#333" />
  <circle cx="35" cy="80" r="7" fill="#42e8e0" />
  <circle cx="50" cy="80" r="7" fill="#ff6bcb" />
  <circle cx="65" cy="80" r="7" fill="#42e8e0" />
  <circle cx="80" cy="80" r="7" fill="#ff6bcb" />
</svg>
